<?xml version="1.0" standalone="no"?>
<!DOCTYPE svg PUBLIC "-//W3C//DTD SVG 20010904//EN"
 "http://www.w3.org/TR/2001/REC-SVG-20010904/DTD/svg10.dtd">
<svg version="1.0" xmlns="http://www.w3.org/2000/svg"
 width="700.000000pt" height="700.000000pt" viewBox="0 0 700.000000 700.000000"
 preserveAspectRatio="xMidYMid meet">
<metadata>
Created by potrace 1.14, written by Peter Selinger 2001-2017
</metadata>
<g transform="translate(0.000000,700.000000) scale(0.100000,-0.100000)"
fill="#000000" stroke="none">
<path d="M2379 5752 c-23 -15 -69 -67 -268 -301 -25 -30 -64 -76 -86 -101 -76
-89 -230 -272 -236 -282 -4 -6 -11 -8 -16 -5 -6 4 -63 76 -128 161 -64 85
-127 162 -140 170 -115 75 -263 -56 -201 -176 25 -47 366 -488 391 -504 70
-45 140 -23 217 68 85 102 254 304 353 419 320 375 329 388 318 449 -17 94
-131 151 -204 102z"/>
<path d="M3127 5369 c-141 -38 -137 -238 4 -266 22 -4 588 -8 1257 -7 1139 0
1219 1 1250 17 91 49 96 177 10 239 l-33 23 -1231 0 c-678 1 -1243 -2 -1257
-6z"/>
<path d="M1785 4159 c-161 -39 -303 -136 -389 -269 -74 -113 -102 -203 -105
-341 -8 -355 287 -645 645 -634 170 5 302 63 424 185 96 96 142 180 177 325
11 46 10 174 -2 235 -44 225 -209 412 -425 481 -74 24 -259 35 -325 18z"/>
<path d="M3144 3682 c-103 -19 -155 -137 -96 -219 46 -65 -37 -61 1319 -61
1369 0 1273 -4 1320 67 44 66 20 158 -50 194 -37 19 -69 20 -1256 21 -670 0
-1226 -1 -1237 -2z"/>
<path d="M1830 2473 c-319 -52 -545 -319 -539 -636 4 -189 83 -354 227 -473
202 -166 485 -190 716 -60 115 65 223 191 270 318 34 89 39 119 39 238 0 89
-5 117 -28 185 -68 199 -245 365 -440 414 -51 13 -199 21 -245 14z"/>
<path d="M3113 1979 c-106 -31 -122 -192 -23 -248 l40 -22 1235 0 c1108 0
1238 1 1267 16 46 22 70 60 76 116 4 42 1 54 -23 85 -15 20 -42 42 -59 50 -25
11 -249 13 -1256 13 -716 -1 -1238 -5 -1257 -10z"/>
</g>
</svg>
