<svg width="17" height="17" viewBox="0 0 17 17" fill="none" xmlns="http://www.w3.org/2000/svg">
<path d="M15.8352 1.16477C15.5125 0.842032 15.0888 0.68 14.6651 0.68C14.2415 0.68 13.8178 0.842032 13.4951 1.16477C13.4951 1.16477 13.4712 1.18734 13.4406 1.21922C13.438 1.22188 13.434 1.2232 13.4313 1.22586L1.46226 13.1936C1.42109 13.2361 1.39054 13.2879 1.3746 13.3463L0.691945 15.8923C0.66007 16.0092 0.693273 16.1341 0.779601 16.2204C0.844679 16.2855 0.931007 16.32 1.01999 16.32C1.04921 16.32 1.07843 16.316 1.10765 16.308L3.65366 15.6254C3.7121 15.6095 3.7639 15.5789 3.8064 15.5364L15.7741 3.57C15.7781 3.56602 15.7794 3.5607 15.7821 3.55672C15.8126 3.52617 15.8339 3.50492 15.8339 3.50492C16.482 2.85813 16.482 1.81023 15.8352 1.16477ZM15.3544 1.64555C15.7343 2.02539 15.7343 2.6443 15.3544 3.02414C15.2416 3.1357 15.1459 3.23266 15.0636 3.315L13.685 1.93641C13.8417 1.77969 13.9759 1.64555 13.9759 1.64555C14.1591 1.46094 14.4048 1.36 14.6651 1.36C14.9255 1.36 15.1698 1.46227 15.3544 1.64555ZM1.90585 13.9918L3.00819 15.0941L1.50077 15.4992L1.90585 13.9918Z" fill="#CCCCCC"/>
</svg>
